<svg xmlns="http://www.w3.org/2000/svg" viewBox="0 0 1266 1545.31"><defs><style>.cls-1{fill:#22b573;}</style></defs><title>Layer 1</title><g id="Layer_2" data-name="Layer 2"><g id="Layer_1-2" data-name="Layer 1"><path class="cls-1" d="M633,0,0,176.54V689.21c0,618,633,856.1,633,856.1s633-238.14,633-856.1V176.54Zm587.38,695.2c0,573.43-587.38,794.39-587.38,794.39S45.62,1268.63,45.62,695.2V219.53L633,55.72l587.38,163.81Z"/><path class="cls-1" d="M633,102.6,84,255.7V700.25c0,535.94,549,742.46,549,742.46s549-206.52,549-742.46V255.7ZM437.38,884.1a18,18,0,0,1-6.86,15,38.89,38.89,0,0,1-26.19,9.46q-56.35,0-112.7,0c-10.45,0-20.26-2.21-28.42-9.42a17.45,17.45,0,0,1-6.32-14q.14-134.73,0-269.46a17.39,17.39,0,0,1,6.93-14.55,36.16,36.16,0,0,1,23.09-8.29q60.45,0,120.91,0c11.29,0,20.11,5.51,27.24,13.72,1.59,1.83,2.23,5,2.25,7.6.13,21.59-.07,43.18,0,64.77,0,3.7-1.19,5.6-4.59,7.17-18.66,8.61-37.19,17.5-55.79,26.27-1.24.58-2.58,1-4.49,1.63v-5.76q0-32.38,0-64.77c0-7.23-.67-7.88-7.87-7.89H331.35c-9,0-9,0-9,8.77V803.71q0,26.77,0,53.55c0,7.28.39,7.67,7.46,7.67q17.47,0,35,0c7.18,0,7.64-.43,7.64-7.49q0-32.16,0-64.34V787c1.87.66,3.07,1,4.18,1.49,18.9,8.79,37.77,17.65,56.7,26.36a6.51,6.51,0,0,1,4.25,6.7C437.47,842.37,437.21,863.23,437.38,884.1ZM655.82,630.85c0,6.23,0,6.25-6.1,6.26H585.64V907.57c-2,.13-3.71.33-5.38.33q-27.21,0-54.41,0c-5.63,0-5.65,0-5.65-5.7q0-128.9,0-257.8c0-8.39.42-7-7.25-7.07-18.86-.06-37.71-.12-56.57.07-3.92,0-4.94-1.41-4.9-5,.14-11.08,0-22.17,0-33.25,0-5.91.21-6.11,6.06-6.11H649.31c6.5,0,6.51,0,6.51,6.28Q655.84,615.08,655.82,630.85ZM812.34,743c.07-2.66-.63-3.85-3.59-3.84-23.47.1-46.93.07-70.39.08a20.77,20.77,0,0,0-2.09.26c-.11,1.23-.32,2.46-.32,3.69.06,25,.08,50.09.23,75.14q.26,42.51.77,85c0,3.82-1.19,5-4.89,5q-28.29-.18-56.57,0c-3.65,0-4.93-1.1-4.93-5q.15-152.64,0-305.3c0-4.11,1.36-5.15,5.18-5.15q83.34.12,166.69,0c3.75,0,5.64.91,5.23,5.1-.33,3.42.12,6.91-.11,10.35s1.21,4.36,4.52,4.33c14.39-.16,28.79-.07,43.18-.07h60.89c1,0,1.92.15,3.53.28-1.06,1.87-1.8,3.36-2.71,4.75q-20.84,31.74-41.73,63.46c-3.67,5.58-3.62,6.19.2,11.93Q936,724,956.47,755c.93,1.4,1.76,2.85,2.95,4.79H812.3C812.3,754.15,812.21,748.59,812.34,743Zm96.31,143.13c-1.71,10.57-9.83,18.68-21.06,20.58a84.5,84.5,0,0,1-13.29,1.09c-14.39.14-28.78,0-43.16.12-3.15,0-4.22-.89-4.21-4.15q.17-44.67,0-89.34c0-3.19.93-4.26,4.15-4.23,16.83.17,33.66-.08,50.49.26,15.43.31,26.16,12.86,24.52,28.22-.71,6.6-4.6,11.31-9.78,15.09-1.49,1.08-3,2.06-5.14,3.46,1.81.93,2.83,1.44,3.84,2C905.39,864.82,910.48,874.86,908.65,886.17ZM1009.11,863c-.62,3.07-1.19,6.15-1.88,9.21-4.8,21.5-21.8,35.34-43.79,35.56-12.37.12-24.74,0-37.12.2-3.27,0-4.53-.87-4.52-4.36q.18-44.25,0-88.5c0-3.16,1-4.43,4.15-4.39,14.23.2,28.49-.2,42.69.58,19.14,1,34.48,14.94,38.54,33.86.72,3.34,1.29,6.71,1.92,10.07Z"/><path class="cls-1" d="M872.05,868.94c-2.71-.27-5.44-.29-8.16-.55-9.54-.91-9.54-.93-9.51,8.72a43.79,43.79,0,0,0,.11,6.88c.16,1,1.58,2.46,2.42,2.46a153.23,153.23,0,0,0,15.88-.79c4.39-.49,7.05-4,6.94-8.39A8.22,8.22,0,0,0,872.05,868.94Z"/><path class="cls-1" d="M954.75,832.29c-2.78.44-3.56,1.6-3.53,4.19.1,7.46,0,14.93,0,22.39s.15,14.65-.06,22c-.1,3.49,1.24,4.75,4.61,5.14,7.41.87,14.4-3.05,18-10.61,5.14-10.94,4.83-21.94.1-32.9C970.26,834.12,963.74,830.87,954.75,832.29Z"/><path class="cls-1" d="M863.66,847.77a67.38,67.38,0,0,0,8.57-.7c3.77-.78,6-4.31,5.69-8.54-.26-3.9-2.11-6.57-6.25-7-3.28-.3-6.59-.48-9.89-.51-7.42-.06-7.43,0-7.43,7.17C854.35,847.58,854.35,847.58,863.66,847.77Z"/></g></g></svg>