<svg xmlns="http://www.w3.org/2000/svg" viewBox="0 0 214 261.21"><defs><style>.cls-1{fill:#22b573;}</style></defs><title>Layer 1</title><g id="Layer_2" data-name="Layer 2"><g id="Layer_1-2" data-name="Layer 1"><path class="cls-1" d="M107,0,0,29.84V116.5C0,221,107,261.21,107,261.21S214,221,214,116.5V29.84Zm99.29,117.51c0,96.94-99.29,134.28-99.29,134.28S7.71,214.45,7.71,117.51V37.11L107,9.42l99.29,27.69Z"/><path class="cls-1" d="M107,17.34,14.21,43.22v75.15C14.21,209,107,243.87,107,243.87s92.79-34.91,92.79-125.5V43.22ZM73.93,149.44A3,3,0,0,1,72.77,152a6.55,6.55,0,0,1-4.42,1.6c-6.35,0-12.7,0-19,0A6.92,6.92,0,0,1,44.49,152a2.93,2.93,0,0,1-1.07-2.36q0-22.77,0-45.55a3,3,0,0,1,1.17-2.46,6.14,6.14,0,0,1,3.91-1.4c6.81,0,13.62,0,20.44,0a6,6,0,0,1,4.6,2.31,2.09,2.09,0,0,1,.38,1.29c0,3.65,0,7.3,0,11a1.15,1.15,0,0,1-.78,1.21c-3.15,1.45-6.29,3-9.43,4.44-.21.1-.43.16-.76.28V108.77c0-1.22-.11-1.33-1.33-1.33H56c-1.51,0-1.51,0-1.51,1.48v26.94c0,3,0,6,0,9,0,1.23.06,1.29,1.26,1.29q3,0,5.91,0c1.21,0,1.29-.07,1.29-1.26V133c.32.11.52.17.71.25,3.19,1.49,6.38,3,9.58,4.46a1.1,1.1,0,0,1,.72,1.13C74,142.39,73.9,145.92,73.93,149.44Zm36.93-42.8c0,1,0,1-1,1-3.29,0-6.57,0-9.86,0H99v45.72c-.34,0-.62.06-.9.06h-9.2c-1,0-1,0-1-1V108.93c0-1.42.07-1.19-1.22-1.2-3.19,0-6.38,0-9.57,0-.66,0-.83-.24-.82-.85,0-1.87,0-3.75,0-5.62,0-1,0-1,1-1h32.41c1.1,0,1.1,0,1.1,1.06Zm26.46,19c0-.45-.11-.65-.61-.65-4,0-7.93,0-11.9,0a3.12,3.12,0,0,0-.35,0c0,.21-.06.41-.06.62q0,6.36,0,12.7,0,7.2.13,14.38c0,.65-.2.85-.83.84q-4.77,0-9.56,0c-.62,0-.83-.18-.83-.84q0-25.8,0-51.6c0-.7.23-.87.87-.87q14.1,0,28.18,0c.63,0,.95.15.88.86s0,1.17,0,1.75.2.74.76.73c2.43,0,4.87,0,7.3,0h10.29c.16,0,.33,0,.6.05-.18.31-.31.57-.46.8l-7,10.73c-.62.94-.62,1,0,2l6.94,10.46.5.81H137.31C137.31,127.48,137.29,126.54,137.32,125.6Zm16.27,24.19a4.19,4.19,0,0,1-3.56,3.48,13.91,13.91,0,0,1-2.24.19c-2.43,0-4.87,0-7.3,0-.53,0-.71-.15-.71-.7q0-7.56,0-15.11c0-.53.16-.71.7-.71,2.85,0,5.69,0,8.54,0a4.18,4.18,0,0,1,4.14,4.77,3.64,3.64,0,0,1-1.65,2.56c-.25.18-.52.34-.87.58l.65.33A4.24,4.24,0,0,1,153.59,149.79Zm17-3.91c-.11.52-.21,1-.32,1.55a7.41,7.41,0,0,1-7.4,6c-2.09,0-4.19,0-6.28,0-.55,0-.76-.15-.76-.74q0-7.49,0-15c0-.53.17-.75.7-.74,2.41,0,4.82,0,7.22.1a7.07,7.07,0,0,1,6.51,5.72c.12.57.22,1.14.33,1.7Z"/><path class="cls-1" d="M147.41,146.88c-.46,0-.92,0-1.38-.09-1.61-.15-1.61-.16-1.61,1.47a7.6,7.6,0,0,0,0,1.17c0,.16.27.41.41.41a24,24,0,0,0,2.68-.13,1.32,1.32,0,0,0,1.18-1.42A1.39,1.39,0,0,0,147.41,146.88Z"/><path class="cls-1" d="M161.39,140.69c-.47.07-.6.27-.6.71,0,1.26,0,2.52,0,3.78s0,2.48,0,3.71c0,.59.21.8.77.87a2.94,2.94,0,0,0,3-1.79,6.48,6.48,0,0,0,0-5.56A2.72,2.72,0,0,0,161.39,140.69Z"/><path class="cls-1" d="M146,143.3a11.65,11.65,0,0,0,1.45-.11,1.29,1.29,0,0,0,1-1.45,1.1,1.1,0,0,0-1.06-1.17,15.43,15.43,0,0,0-1.67-.09c-1.25,0-1.25,0-1.25,1.21C144.42,143.27,144.42,143.27,146,143.3Z"/></g></g></svg>